HIERARCHY
ROOT Hips
{
	OFFSET -0.001795 -0.223333 0.028219
	CHANNELS 6 Xposition Yposition Zposition Zrotation Yrotation Xrotation 
	JOINT LeftUpLeg
	{
		OFFSET 0.069520 -0.091406 -0.006815
		CHANNELS 3 Zrotation Yrotation Xrotation
		JOINT LeftLeg
		{
			OFFSET 0.034277 -0.375199 -0.004496
			CHANNELS 3 Zrotation Yrotation Xrotation
			JOINT LeftFoot
			{
				OFFSET -0.013596 -0.397961 -0.043693
				CHANNELS 3 Zrotation Yrotation Xrotation
				JOINT LeftToe
				{
					OFFSET 0.026358 -0.055791 0.119288
					CHANNELS 3 Zrotation Yrotation Xrotation
					End Site
					{
						OFFSET 0.000000 0.000000 0.000000
					}
				}
			}
		}
	}
	JOINT RightUpLeg
	{
		OFFSET -0.067670 -0.090522 -0.004320
		CHANNELS 3 Zrotation Yrotation Xrotation
		JOINT RightLeg
		{
			OFFSET -0.038290 -0.382569 -0.008850
			CHANNELS 3 Zrotation Yrotation Xrotation
			JOINT RightFoot
			{
				OFFSET 0.015774 -0.398415 -0.042312
				CHANNELS 3 Zrotation Yrotation Xrotation
				JOINT RightToe
				{
					OFFSET -0.025372 -0.048144 0.123348
					CHANNELS 3 Zrotation Yrotation Xrotation
					End Site
					{
						OFFSET 0.000000 0.000000 0.000000
					}
				}
			}
		}
	}
	JOINT Spine
	{
		OFFSET -0.002533 0.108963 -0.026696
		CHANNELS 3 Zrotation Yrotation Xrotation
		JOINT Spine1
		{
			OFFSET 0.005487 0.135180 0.001092
			CHANNELS 3 Zrotation Yrotation Xrotation
			JOINT Spine2
			{
				OFFSET 0.001457 0.052922 0.025425
				CHANNELS 3 Zrotation Yrotation Xrotation
				JOINT Neck
				{
					OFFSET -0.002778 0.213870 -0.042857
					CHANNELS 3 Zrotation Yrotation Xrotation
					JOINT Head
					{
						OFFSET 0.005152 0.064970 0.051349
						CHANNELS 3 Zrotation Yrotation Xrotation
						End Site
						{
							OFFSET 0.000000 0.000000 0.000000
						}
					}
				}
				JOINT LeftShoulder
				{
					OFFSET 0.078845 0.121749 -0.034090
					CHANNELS 3 Zrotation Yrotation Xrotation
					JOINT LeftArm
					{
						OFFSET 0.090977 0.030469 -0.008868
						CHANNELS 3 Zrotation Yrotation Xrotation
						JOINT LeftForeArm
						{
							OFFSET 0.259612 -0.012772 -0.027456
							CHANNELS 3 Zrotation Yrotation Xrotation
							JOINT LeftHand
							{
								OFFSET 0.249234 0.008986 -0.001171
								CHANNELS 3 Zrotation Yrotation Xrotation
								End Site
								{
									OFFSET 0.000000 0.000000 0.000000
								}
							}
						}
					}
				}
				JOINT RightShoulder
				{
					OFFSET -0.081759 0.118833 -0.038615
					CHANNELS 3 Zrotation Yrotation Xrotation
					JOINT RightArm
					{
						OFFSET -0.096012 0.032551 -0.009143
						CHANNELS 3 Zrotation Yrotation Xrotation
						JOINT RightForeArm
						{
							OFFSET -0.253742 -0.013329 -0.021401
							CHANNELS 3 Zrotation Yrotation Xrotation
							JOINT RightHand
							{
								OFFSET -0.255298 0.007772 -0.005559
								CHANNELS 3 Zrotation Yrotation Xrotation
								End Site
								{
									OFFSET 0.000000 0.000000 0.000000
								}
							}
						}
					}
				}
			}
		}
	}
}
MOTION
Frames: 6
Frame Time: 0.050000
0.012421 0.955942 0.032672 -0.756618 -8.413275 5.762901 -3.439980 -0.952038 -8.421947 -1.169110 0.111202 2.052065 3.610523 9.189974 9.350658 0.000000 0.000000 0.000000 3.092929 1.014333 -9.086718 0.523235 0.231500 6.363155 -1.031946 -5.164118 4.803590 0.000000 0.000000 0.000000 7.225598 -0.499836 3.260387 -6.950458 2.291231 -18.538937 -1.495465 10.132587 33.147122 8.012822 -2.689989 -24.010052 0.000000 0.000000 0.000000 -11.035724 -0.319964 -0.893303 -66.746486 -2.185469 -10.372350 7.061442 -24.799376 -0.112468 0.000000 0.000000 0.000000 16.888495 -8.230474 -4.283455 69.292733 0.834421 -9.124384 1.997356 32.444146 2.985942 0.000000 0.000000 0.000000 
0.013207 0.956642 0.031890 -1.079208 -8.906070 6.049789 -2.934676 -0.941903 -8.619010 -1.535574 0.170773 1.709271 4.200811 10.200306 9.618575 0.000000 0.000000 0.000000 3.423859 1.080734 -9.499671 0.411282 0.252095 6.386613 -0.767590 -4.664104 4.896799 0.000000 0.000000 0.000000 7.370680 -0.498435 3.143172 -6.630513 2.183634 -18.536170 -1.628430 9.968898 33.295873 8.533422 -3.007876 -24.648622 0.000000 0.000000 0.000000 -10.221925 0.217586 -0.982174 -67.389742 -2.066727 -10.505753 6.726309 -23.415060 -0.010523 0.000000 0.000000 0.000000 15.956428 -8.807658 -4.610483 69.267131 0.694350 -9.221925 2.150680 33.700474 3.152103 0.000000 0.000000 0.000000 
0.013862 0.957553 0.030709 -1.384011 -9.713078 6.378316 -2.507513 -0.922012 -8.697554 -1.568907 0.185753 1.188476 4.456065 10.610626 10.084191 0.000000 0.000000 0.000000 3.792981 1.164374 -10.011735 0.383410 0.262268 6.400600 -0.344914 -4.071269 5.432051 0.000000 0.000000 0.000000 7.479506 -0.517023 3.238872 -6.505607 2.115067 -18.848720 -1.772513 9.812316 33.475778 8.832696 -3.213188 -25.326717 0.000000 0.000000 0.000000 -9.321007 0.527401 -0.938089 -67.625722 -1.933129 -10.562042 6.126836 -22.055404 0.128903 0.000000 0.000000 0.000000 15.060855 -9.867579 -5.214617 68.356032 -0.376312 -9.833762 3.278466 36.261783 3.755723 0.000000 0.000000 0.000000 
0.014367 0.958582 0.029782 -1.749264 -10.498025 6.817839 -2.014025 -0.930188 -9.147006 -1.769461 0.219225 1.028252 4.812383 11.148127 10.160145 0.000000 0.000000 0.000000 4.345129 1.263704 -10.546877 0.208294 0.287627 6.324516 0.038017 -3.409566 5.633850 0.000000 0.000000 0.000000 7.631571 -0.518699 3.131174 -6.322629 2.038949 -18.895319 -2.076883 9.047130 33.529649 8.763254 -3.336120 -25.684372 0.000000 0.000000 0.000000 -8.612476 1.677708 -1.234959 -67.459994 -1.378993 -10.677284 5.884931 -21.033697 0.218218 0.000000 0.000000 0.000000 13.340016 -11.205619 -5.902591 67.181235 -1.852872 -10.645206 4.943851 39.734168 4.637685 0.000000 0.000000 0.000000 
0.014463 0.959710 0.029360 -1.849343 -11.599390 6.975256 -1.784218 -0.908460 -9.107621 -1.792573 0.232079 0.588897 5.319199 11.937340 10.667939 0.000000 0.000000 0.000000 4.491867 1.336385 -10.993439 0.305674 0.290668 6.493901 0.122751 -3.395346 5.780544 0.000000 0.000000 0.000000 7.782347 -0.542537 3.322504 -6.362563 2.015081 -19.267507 -2.482571 8.544742 33.792110 8.484837 -3.494821 -24.956669 0.000000 0.000000 0.000000 -7.493361 3.179127 -1.677590 -67.327193 -0.415173 -11.024106 6.321271 -20.489026 0.203854 0.000000 0.000000 0.000000 11.772132 -12.795019 -6.630331 65.874199 -3.816134 -11.705257 7.710878 43.414890 6.064805 0.000000 0.000000 0.000000 
0.014228 0.961077 0.029473 -1.912700 -12.637337 7.086209 -1.541530 -0.889555 -9.112730 -2.193086 0.293140 0.723974 5.879320 12.800540 10.949312 0.000000 0.000000 0.000000 4.547502 1.421507 -11.528902 0.173116 0.325021 6.664111 0.487642 -3.065366 6.427148 0.000000 0.000000 0.000000 7.797356 -0.537950 3.304170 -6.362293 1.986589 -19.524645 -2.725834 7.764523 34.029924 7.547610 -3.194478 -24.845567 0.000000 0.000000 0.000000 -6.499983 4.676884 -2.131287 -66.090341 1.167119 -11.508001 6.704410 -20.511534 0.209808 0.000000 0.000000 0.000000 10.490212 -14.258641 -7.290741 63.342389 -6.168634 -12.699955 10.672503 48.366616 7.893349 0.000000 0.000000 0.000000 
